<svg width="853" height="598" viewBox="0 0 853 598" fill="none" xmlns="http://www.w3.org/2000/svg">
    <g filter="url(#filter0_d_16_9314)">
        <rect x="129" y="60" width="621" height="480" rx="40" fill="url(#paint0_radial_16_9314)"
              shape-rendering="crispEdges"/>
        <rect x="119" y="50" width="641" height="500" rx="50" stroke="url(#paint1_linear_16_9314)" stroke-width="20"
              shape-rendering="crispEdges"/>
    </g>
    <g filter="url(#filter1_f_16_9314)">
        <path d="M726.782 169.579C740.25 165.312 765.914 210.317 765.914 210.317C765.914 210.317 813.424 189.691 821.648 201.194C829.864 212.672 794.987 250.999 794.987 250.999C794.987 250.999 829.276 289.83 820.899 301.188C812.522 312.546 765.295 291.24 765.295 291.24C765.295 291.24 738.977 335.844 725.562 331.39C712.147 326.936 717.849 275.436 717.849 275.436C717.849 275.436 667.29 264.174 667.373 250.068C667.481 235.954 718.194 225.435 718.194 225.435C718.194 225.435 713.314 173.846 726.782 169.579Z"
              fill="url(#paint2_linear_16_9314)"/>
    </g>
    <g filter="url(#filter2_f_16_9314)">
        <path d="M726.782 169.579C740.25 165.312 765.914 210.317 765.914 210.317C765.914 210.317 813.424 189.691 821.648 201.194C829.864 212.672 794.987 250.999 794.987 250.999C794.987 250.999 829.276 289.83 820.899 301.188C812.522 312.546 765.295 291.24 765.295 291.24C765.295 291.24 738.977 335.844 725.562 331.39C712.147 326.936 717.849 275.436 717.849 275.436C717.849 275.436 667.29 264.174 667.373 250.068C667.481 235.954 718.194 225.435 718.194 225.435C718.194 225.435 713.314 173.846 726.782 169.579Z"
              fill="url(#paint3_linear_16_9314)"/>
    </g>
    <g filter="url(#filter3_f_16_9314)">
        <path d="M726.782 169.579C740.25 165.312 765.914 210.317 765.914 210.317C765.914 210.317 813.424 189.691 821.648 201.194C829.864 212.672 794.987 250.999 794.987 250.999C794.987 250.999 829.276 289.83 820.899 301.188C812.522 312.546 765.295 291.24 765.295 291.24C765.295 291.24 738.977 335.844 725.562 331.39C712.147 326.936 717.849 275.436 717.849 275.436C717.849 275.436 667.29 264.174 667.373 250.068C667.481 235.954 718.194 225.435 718.194 225.435C718.194 225.435 713.314 173.846 726.782 169.579Z"
              fill="url(#paint4_linear_16_9314)"/>
    </g>
    <path d="M726.781 169.579C739.577 165.526 764.005 208.333 764.005 208.333C764.005 208.333 809.219 188.719 817.032 199.642C824.844 210.564 791.676 247.013 791.676 247.013C791.676 247.013 824.312 283.95 816.329 294.756C808.346 305.562 763.437 285.286 763.437 285.286C763.437 285.286 738.395 327.723 725.646 323.484C712.897 319.246 718.312 270.255 718.312 270.255C718.312 270.255 670.206 259.553 670.304 246.124C670.402 232.696 718.663 222.698 718.663 222.698C718.663 222.698 713.985 173.633 726.781 169.579Z"
          fill="url(#paint5_radial_16_9314)"/>
    <path d="M790.644 243.756C790.644 243.756 822.789 279.141 814.75 289.681C806.677 300.203 762.128 281.064 762.128 281.064C762.128 281.064 736.726 322.363 724.067 318.409C711.425 314.421 717.332 266.981 717.332 266.981C717.332 266.981 669.479 257.166 669.716 244.177C669.716 244.177 669.716 244.177 669.734 244.143C670.039 231.189 718.165 221.035 718.165 221.035C718.165 221.035 713.994 173.659 726.816 169.597C739.638 165.535 763.507 206.671 763.507 206.671C763.507 206.671 802.089 190.096 814.079 195.798C815.076 196.25 815.872 196.88 816.469 197.686C824.091 208.186 790.644 243.756 790.644 243.756Z"
          fill="url(#paint6_linear_16_9314)"/>
    <path d="M790.3 242.67C790.3 242.67 822.445 278.056 814.406 288.595C806.333 299.117 760.777 276.799 760.777 276.799C760.777 276.799 736.382 321.278 723.723 317.324C711.082 313.335 716.988 265.895 716.988 265.895C716.988 265.895 669.135 256.081 669.372 243.091C669.372 243.091 669.372 243.091 669.39 243.057C669.695 230.104 717.821 219.949 717.821 219.949C717.821 219.949 713.65 172.573 726.472 168.511C739.294 164.449 763.163 205.585 763.163 205.585C763.163 205.585 801.745 189.01 813.735 194.712C814.732 195.165 815.529 195.794 816.125 196.601C823.747 207.1 790.3 242.67 790.3 242.67Z"
          fill="url(#paint7_linear_16_9314)"/>
    <path d="M814.02 195.788C813.655 196.701 813.126 197.636 812.418 198.543C797.039 218.775 759.029 228.001 715.362 231.85C673.371 235.51 669.881 243.528 669.709 244.151C670.014 231.197 718.14 221.043 718.14 221.043C718.14 221.043 713.969 173.667 726.79 169.605C739.612 165.543 763.481 206.679 763.481 206.679C763.481 206.679 802.056 190.078 814.02 195.788Z"
          fill="#FEEA80"/>
    <path d="M719.049 188.356C719.049 188.356 721.068 173.181 725.165 172.196C729.262 171.211 728.692 182.343 727.751 183.95C726.783 185.565 720.591 189.005 719.049 188.356Z"
          fill="white"/>
    <path d="M672.165 241.581C672.45 243.738 686.483 234.969 685.921 233.013C685.376 231.024 671.506 236.357 672.165 241.581Z"
          fill="white"/>
    <path d="M813.186 277.291C811.469 275.73 814.029 290.905 814.742 289.655C815.438 288.439 819.271 282.759 813.186 277.291Z"
          fill="white"/>
    <path d="M724.752 273.704C726.909 272.879 729.328 273.961 730.179 276.109C731.005 278.266 729.922 280.685 727.774 281.536C725.618 282.362 723.198 281.279 722.347 279.131C721.514 276.949 722.596 274.529 724.752 273.704Z"
          fill="white" fill-opacity="0.4"/>
    <path d="M757.815 219.595C759.972 218.77 762.391 219.853 763.242 222.001C764.068 224.157 762.985 226.576 760.837 227.428C758.681 228.253 756.236 227.179 755.41 225.022C754.585 222.866 755.667 220.447 757.815 219.595Z"
          fill="white" fill-opacity="0.4"/>
    <path d="M733.041 217.801C739.104 215.482 745.894 218.508 748.205 224.546C750.524 230.609 747.498 237.399 741.461 239.71C735.397 242.029 728.607 239.003 726.296 232.966C723.951 226.91 726.977 220.12 733.041 217.801Z"
          fill="white" fill-opacity="0.4"/>
    <path d="M731.432 285.27C732.88 284.726 734.499 285.436 735.044 286.885C735.588 288.334 734.878 289.953 733.429 290.497C731.98 291.042 730.361 290.331 729.817 288.882C729.272 287.434 729.983 285.815 731.432 285.27Z"
          fill="white" fill-opacity="0.4"/>
    <path d="M781.302 270.296C782.751 269.752 784.37 270.462 784.914 271.911C785.458 273.36 784.748 274.979 783.299 275.523C781.85 276.068 780.232 275.357 779.687 273.908C779.143 272.459 779.853 270.841 781.302 270.296Z"
          fill="white" fill-opacity="0.4"/>
    <g filter="url(#filter4_f_16_9314)">
        <path d="M746.848 470.091C754.267 467.74 768.404 492.532 768.404 492.532C768.404 492.532 794.576 481.17 799.106 487.506C803.632 493.829 784.419 514.942 784.419 514.942C784.419 514.942 803.308 536.333 798.694 542.59C794.079 548.846 768.063 537.11 768.063 537.11C768.063 537.11 753.566 561.681 746.176 559.227C738.786 556.773 741.927 528.404 741.927 528.404C741.927 528.404 714.076 522.2 714.121 514.43C714.18 506.654 742.117 500.86 742.117 500.86C742.117 500.86 739.428 472.441 746.848 470.091Z"
              fill="url(#paint8_linear_16_9314)"/>
    </g>
    <g filter="url(#filter5_f_16_9314)">
        <path d="M746.848 470.091C754.267 467.74 768.404 492.532 768.404 492.532C768.404 492.532 794.576 481.17 799.106 487.506C803.632 493.829 784.419 514.942 784.419 514.942C784.419 514.942 803.308 536.333 798.694 542.59C794.079 548.846 768.063 537.11 768.063 537.11C768.063 537.11 753.566 561.681 746.176 559.227C738.786 556.773 741.927 528.404 741.927 528.404C741.927 528.404 714.076 522.2 714.121 514.43C714.18 506.654 742.117 500.86 742.117 500.86C742.117 500.86 739.428 472.441 746.848 470.091Z"
              fill="url(#paint9_linear_16_9314)"/>
    </g>
    <g filter="url(#filter6_f_16_9314)">
        <path d="M746.848 470.091C754.267 467.74 768.404 492.532 768.404 492.532C768.404 492.532 794.576 481.17 799.106 487.506C803.632 493.829 784.419 514.942 784.419 514.942C784.419 514.942 803.308 536.333 798.694 542.59C794.079 548.846 768.063 537.11 768.063 537.11C768.063 537.11 753.566 561.681 746.176 559.227C738.786 556.773 741.927 528.404 741.927 528.404C741.927 528.404 714.076 522.2 714.121 514.43C714.18 506.654 742.117 500.86 742.117 500.86C742.117 500.86 739.428 472.441 746.848 470.091Z"
              fill="url(#paint10_linear_16_9314)"/>
    </g>
    <path d="M746.847 470.091C753.896 467.858 767.352 491.439 767.352 491.439C767.352 491.439 792.26 480.634 796.563 486.651C800.867 492.668 782.595 512.747 782.595 512.747C782.595 512.747 800.574 533.094 796.176 539.047C791.779 545 767.04 533.83 767.04 533.83C767.04 533.83 753.245 557.207 746.222 554.872C739.198 552.537 742.182 525.55 742.182 525.55C742.182 525.55 715.682 519.654 715.736 512.257C715.79 504.86 742.375 499.352 742.375 499.352C742.375 499.352 739.798 472.324 746.847 470.091Z"
          fill="url(#paint11_radial_16_9314)"/>
    <path d="M782.027 510.953C782.027 510.953 799.735 530.445 795.306 536.251C790.859 542.047 766.319 531.504 766.319 531.504C766.319 531.504 752.325 554.255 745.352 552.077C738.388 549.88 741.642 523.746 741.642 523.746C741.642 523.746 715.281 518.34 715.412 511.184C715.412 511.184 715.412 511.184 715.422 511.166C715.59 504.03 742.101 498.436 742.101 498.436C742.101 498.436 739.803 472.338 746.866 470.1C753.929 467.863 767.078 490.523 767.078 490.523C767.078 490.523 788.332 481.393 794.937 484.534C795.486 484.783 795.925 485.13 796.253 485.574C800.452 491.358 782.027 510.953 782.027 510.953Z"
          fill="url(#paint12_linear_16_9314)"/>
    <path d="M781.838 510.354C781.838 510.354 799.546 529.847 795.117 535.653C790.67 541.449 765.575 529.155 765.575 529.155C765.575 529.155 752.136 553.657 745.163 551.478C738.199 549.281 741.453 523.148 741.453 523.148C741.453 523.148 715.092 517.742 715.223 510.586C715.223 510.586 715.223 510.586 715.232 510.568C715.4 503.432 741.912 497.838 741.912 497.838C741.912 497.838 739.614 471.74 746.677 469.502C753.74 467.265 766.889 489.925 766.889 489.925C766.889 489.925 788.143 480.795 794.747 483.936C795.296 484.185 795.735 484.532 796.064 484.976C800.263 490.76 781.838 510.354 781.838 510.354Z"
          fill="url(#paint13_linear_16_9314)"/>
    <path d="M794.904 484.529C794.703 485.031 794.412 485.546 794.022 486.046C785.55 497.191 764.611 502.273 740.557 504.394C717.425 506.41 715.503 510.827 715.408 511.17C715.576 504.034 742.087 498.441 742.087 498.441C742.087 498.441 739.789 472.342 746.852 470.105C753.915 467.867 767.064 490.528 767.064 490.528C767.064 490.528 788.314 481.383 794.904 484.529Z"
          fill="#FEEA80"/>
    <path d="M742.588 480.434C742.588 480.434 743.7 472.075 745.957 471.532C748.214 470.99 747.9 477.122 747.381 478.007C746.848 478.897 743.437 480.792 742.588 480.434Z"
          fill="white"/>
    <path d="M716.761 509.754C716.918 510.942 724.648 506.112 724.338 505.035C724.038 503.939 716.398 506.876 716.761 509.754Z"
          fill="white"/>
    <path d="M794.445 529.426C793.499 528.566 794.909 536.925 795.302 536.237C795.685 535.567 797.797 532.438 794.445 529.426Z"
          fill="white"/>
    <path d="M745.73 527.45C746.918 526.995 748.25 527.592 748.719 528.775C749.174 529.963 748.578 531.296 747.394 531.764C746.207 532.219 744.874 531.623 744.405 530.439C743.946 529.237 744.542 527.905 745.73 527.45Z"
          fill="white" fill-opacity="0.4"/>
    <path d="M763.943 497.643C765.131 497.189 766.464 497.785 766.932 498.968C767.387 500.156 766.791 501.489 765.607 501.958C764.42 502.412 763.073 501.821 762.618 500.633C762.163 499.445 762.76 498.112 763.943 497.643Z"
          fill="white" fill-opacity="0.4"/>
    <path d="M750.296 496.655C753.636 495.377 757.376 497.044 758.649 500.37C759.927 503.71 758.26 507.451 754.934 508.724C751.594 510.001 747.853 508.334 746.58 505.008C745.288 501.673 746.955 497.932 750.296 496.655Z"
          fill="white" fill-opacity="0.4"/>
    <path d="M749.409 533.821C750.207 533.522 751.099 533.913 751.399 534.711C751.699 535.509 751.307 536.401 750.509 536.701C749.711 537.001 748.819 536.609 748.519 535.811C748.22 535.013 748.611 534.121 749.409 533.821Z"
          fill="white" fill-opacity="0.4"/>
    <path d="M776.881 525.573C777.679 525.273 778.571 525.664 778.871 526.462C779.171 527.26 778.779 528.152 777.981 528.452C777.183 528.752 776.291 528.361 775.991 527.562C775.691 526.764 776.083 525.872 776.881 525.573Z"
          fill="white" fill-opacity="0.4"/>
    <g filter="url(#filter7_f_16_9314)">
        <path d="M89.7817 405.579C103.25 401.312 128.914 446.317 128.914 446.317C128.914 446.317 176.424 425.691 184.648 437.194C192.864 448.672 157.987 486.999 157.987 486.999C157.987 486.999 192.276 525.83 183.899 537.188C175.522 548.546 128.295 527.24 128.295 527.24C128.295 527.24 101.977 571.844 88.5621 567.39C75.1473 562.936 80.8488 511.436 80.8488 511.436C80.8488 511.436 30.2901 500.174 30.3725 486.068C30.4807 471.954 81.1936 461.435 81.1936 461.435C81.1936 461.435 76.3136 409.846 89.7817 405.579Z"
              fill="url(#paint14_linear_16_9314)"/>
    </g>
    <g filter="url(#filter8_f_16_9314)">
        <path d="M89.7819 405.579C103.25 401.312 128.914 446.317 128.914 446.317C128.914 446.317 176.424 425.691 184.648 437.194C192.864 448.672 157.987 486.999 157.987 486.999C157.987 486.999 192.276 525.83 183.899 537.188C175.522 548.546 128.295 527.24 128.295 527.24C128.295 527.24 101.977 571.844 88.5623 567.39C75.1474 562.936 80.849 511.436 80.849 511.436C80.849 511.436 30.2903 500.174 30.3726 486.068C30.4808 471.954 81.1938 461.435 81.1938 461.435C81.1938 461.435 76.3138 409.846 89.7819 405.579Z"
              fill="url(#paint15_linear_16_9314)"/>
    </g>
    <g filter="url(#filter9_f_16_9314)">
        <path d="M89.7819 405.579C103.25 401.312 128.914 446.317 128.914 446.317C128.914 446.317 176.424 425.691 184.648 437.194C192.864 448.672 157.987 486.999 157.987 486.999C157.987 486.999 192.276 525.83 183.899 537.188C175.522 548.546 128.295 527.24 128.295 527.24C128.295 527.24 101.977 571.844 88.5623 567.39C75.1474 562.936 80.849 511.436 80.849 511.436C80.849 511.436 30.2903 500.174 30.3726 486.068C30.4808 471.954 81.1938 461.435 81.1938 461.435C81.1938 461.435 76.3138 409.846 89.7819 405.579Z"
              fill="url(#paint16_linear_16_9314)"/>
    </g>
    <path d="M89.7813 405.579C102.577 401.526 127.005 444.333 127.005 444.333C127.005 444.333 172.219 424.719 180.031 435.642C187.844 446.564 154.675 483.013 154.675 483.013C154.675 483.013 187.312 519.95 179.329 530.756C171.346 541.562 126.437 521.286 126.437 521.286C126.437 521.286 101.395 563.723 88.6456 559.484C75.8965 555.246 81.3118 506.255 81.3118 506.255C81.3118 506.255 33.2062 495.553 33.3041 482.124C33.402 468.696 81.6629 458.698 81.6629 458.698C81.6629 458.698 76.9853 409.633 89.7813 405.579Z"
          fill="url(#paint17_radial_16_9314)"/>
    <path d="M153.644 479.756C153.644 479.756 185.789 515.141 177.75 525.681C169.677 536.203 125.128 517.064 125.128 517.064C125.128 517.064 99.7256 558.363 87.0666 554.409C74.4252 550.421 80.3317 502.981 80.3317 502.981C80.3317 502.981 32.4788 493.166 32.716 480.177C32.716 480.177 32.716 480.177 32.7337 480.143C33.0389 467.189 81.1648 457.035 81.1648 457.035C81.1648 457.035 76.9938 409.659 89.8156 405.597C102.637 401.535 126.507 442.671 126.507 442.671C126.507 442.671 165.089 426.096 177.079 431.798C178.075 432.25 178.872 432.88 179.469 433.686C187.09 444.186 153.644 479.756 153.644 479.756Z"
          fill="url(#paint18_linear_16_9314)"/>
    <path d="M153.3 478.67C153.3 478.67 185.445 514.056 177.406 524.595C169.333 535.117 123.777 512.799 123.777 512.799C123.777 512.799 99.3819 557.278 86.7228 553.324C74.0814 549.335 79.988 501.895 79.988 501.895C79.988 501.895 32.1351 492.081 32.3722 479.091C32.3722 479.091 32.3723 479.091 32.3899 479.057C32.6951 466.104 80.8211 455.949 80.8211 455.949C80.8211 455.949 76.65 408.573 89.4718 404.511C102.294 400.449 126.163 441.585 126.163 441.585C126.163 441.585 164.745 425.01 176.735 430.712C177.732 431.165 178.528 431.794 179.125 432.601C186.747 443.1 153.3 478.67 153.3 478.67Z"
          fill="url(#paint19_linear_16_9314)"/>
    <path d="M177.02 431.788C176.654 432.701 176.126 433.636 175.418 434.543C160.038 454.775 122.029 464.001 78.3623 467.85C36.3709 471.51 32.8807 479.528 32.7084 480.151C33.0136 467.197 81.1396 457.043 81.1396 457.043C81.1396 457.043 76.9685 409.667 89.7903 405.605C102.612 401.543 126.481 442.679 126.481 442.679C126.481 442.679 165.056 426.078 177.02 431.788Z"
          fill="#FEEA80"/>
    <path d="M82.0489 424.356C82.0489 424.356 84.0683 409.181 88.1652 408.196C92.2621 407.211 91.6924 418.343 90.7508 419.95C89.7833 421.565 83.5914 425.005 82.0489 424.356Z"
          fill="white"/>
    <path d="M35.1653 477.581C35.4503 479.738 49.4833 470.969 48.9208 469.013C48.3759 467.024 34.5059 472.357 35.1653 477.581Z"
          fill="white"/>
    <path d="M176.186 513.291C174.469 511.73 177.029 526.905 177.742 525.655C178.438 524.439 182.271 518.759 176.186 513.291Z"
          fill="white"/>
    <path d="M87.7525 509.704C89.9089 508.879 92.3282 509.961 93.1794 512.109C94.0047 514.266 92.9224 516.685 90.7742 517.536C88.6179 518.362 86.1984 517.279 85.3472 515.131C84.5137 512.949 85.5962 510.529 87.7525 509.704Z"
          fill="white" fill-opacity="0.4"/>
    <path d="M120.815 455.595C122.972 454.77 125.391 455.853 126.242 458.001C127.068 460.157 125.985 462.576 123.837 463.428C121.681 464.253 119.236 463.179 118.41 461.022C117.585 458.866 118.667 456.447 120.815 455.595Z"
          fill="white" fill-opacity="0.4"/>
    <path d="M96.0407 453.801C102.104 451.482 108.894 454.508 111.205 460.546C113.524 466.609 110.498 473.399 104.461 475.71C98.3969 478.029 91.6071 475.003 89.2961 468.966C86.9511 462.91 89.9771 456.12 96.0407 453.801Z"
          fill="white" fill-opacity="0.4"/>
    <path d="M94.4314 521.27C95.8803 520.726 97.4991 521.436 98.0434 522.885C98.5878 524.334 97.8775 525.953 96.4286 526.497C94.9797 527.042 93.3608 526.331 92.8165 524.882C92.2722 523.434 92.9825 521.815 94.4314 521.27Z"
          fill="white" fill-opacity="0.4"/>
    <path d="M144.302 506.296C145.751 505.752 147.37 506.462 147.914 507.911C148.459 509.36 147.748 510.979 146.299 511.523C144.851 512.068 143.232 511.357 142.687 509.908C142.143 508.459 142.853 506.841 144.302 506.296Z"
          fill="white" fill-opacity="0.4"/>
    <g filter="url(#filter10_f_16_9314)">
        <path d="M123.453 30.9208C132.362 28.0984 149.339 57.8692 149.339 57.8692C149.339 57.8692 180.767 44.2247 186.207 51.8342C191.642 59.4266 168.571 84.7804 168.571 84.7804C168.571 84.7804 191.253 110.467 185.712 117.98C180.17 125.494 148.93 111.4 148.93 111.4C148.93 111.4 131.52 140.906 122.646 137.959C113.772 135.013 117.544 100.946 117.544 100.946C117.544 100.946 84.099 93.4959 84.1535 84.1646C84.2251 74.8278 117.772 67.8695 117.772 67.8695C117.772 67.8695 114.544 33.7432 123.453 30.9208Z"
              fill="url(#paint20_linear_16_9314)"/>
    </g>
    <g filter="url(#filter11_f_16_9314)">
        <path d="M123.453 30.9208C132.362 28.0984 149.339 57.8692 149.339 57.8692C149.339 57.8692 180.767 44.2247 186.207 51.8342C191.642 59.4266 168.571 84.7804 168.571 84.7804C168.571 84.7804 191.253 110.467 185.712 117.98C180.17 125.494 148.93 111.4 148.93 111.4C148.93 111.4 131.52 140.906 122.646 137.959C113.772 135.013 117.544 100.946 117.544 100.946C117.544 100.946 84.099 93.4959 84.1535 84.1646C84.2251 74.8278 117.772 67.8695 117.772 67.8695C117.772 67.8695 114.544 33.7432 123.453 30.9208Z"
              fill="url(#paint21_linear_16_9314)"/>
    </g>
    <g filter="url(#filter12_f_16_9314)">
        <path d="M123.453 30.9208C132.362 28.0984 149.339 57.8692 149.339 57.8692C149.339 57.8692 180.767 44.2247 186.207 51.8342C191.642 59.4266 168.571 84.7804 168.571 84.7804C168.571 84.7804 191.253 110.467 185.712 117.98C180.17 125.494 148.93 111.4 148.93 111.4C148.93 111.4 131.52 140.906 122.646 137.959C113.772 135.013 117.544 100.946 117.544 100.946C117.544 100.946 84.099 93.4959 84.1535 84.1646C84.2251 74.8278 117.772 67.8695 117.772 67.8695C117.772 67.8695 114.544 33.7432 123.453 30.9208Z"
              fill="url(#paint22_linear_16_9314)"/>
    </g>
    <path d="M123.453 30.9209C131.917 28.2393 148.076 56.5569 148.076 56.5569C148.076 56.5569 177.986 43.5818 183.153 50.8072C188.321 58.0325 166.38 82.1438 166.38 82.1438C166.38 82.1438 187.97 106.577 182.689 113.726C177.408 120.874 147.7 107.461 147.7 107.461C147.7 107.461 131.135 135.533 122.701 132.73C114.268 129.926 117.85 97.5181 117.85 97.5181C117.85 97.5181 86.028 90.4387 86.0928 81.5557C86.1576 72.6726 118.082 66.0588 118.082 66.0588C118.082 66.0588 114.988 33.6024 123.453 30.9209Z"
          fill="url(#paint23_radial_16_9314)"/>
    <path d="M165.698 79.9891C165.698 79.9891 186.962 103.396 181.644 110.368C176.304 117.329 146.835 104.668 146.835 104.668C146.835 104.668 130.031 131.988 121.657 129.372C113.295 126.734 117.202 95.3525 117.202 95.3525C117.202 95.3525 85.5469 88.8599 85.7038 80.2676C85.7038 80.2676 85.7038 80.2676 85.7155 80.2451C85.9174 71.6761 117.753 64.9589 117.753 64.9589C117.753 64.9589 114.994 33.6194 123.475 30.9324C131.957 28.2454 147.747 55.457 147.747 55.457C147.747 55.457 173.269 44.4926 181.2 48.2647C181.86 48.5639 182.387 48.9802 182.781 49.5137C187.823 56.4592 165.698 79.9891 165.698 79.9891Z"
          fill="url(#paint24_linear_16_9314)"/>
    <path d="M165.471 79.2709C165.471 79.2709 186.735 102.678 181.417 109.65C176.077 116.611 145.941 101.847 145.941 101.847C145.941 101.847 129.803 131.27 121.429 128.654C113.067 126.016 116.974 94.6344 116.974 94.6344C116.974 94.6344 85.3195 88.1418 85.4764 79.5494C85.4764 79.5494 85.4764 79.5494 85.4881 79.5269C85.69 70.958 117.525 64.2407 117.525 64.2407C117.525 64.2407 114.766 32.9012 123.248 30.2142C131.73 27.5273 147.519 54.7388 147.519 54.7388C147.519 54.7388 173.042 43.7745 180.973 47.5465C181.632 47.8457 182.159 48.262 182.554 48.7955C187.596 55.741 165.471 79.2709 165.471 79.2709Z"
          fill="url(#paint25_linear_16_9314)"/>
    <path d="M181.161 48.2583C180.919 48.8617 180.57 49.4805 180.101 50.0805C169.928 63.4642 144.784 69.5668 115.899 72.1131C88.1215 74.5341 85.8127 79.8379 85.6987 80.2504C85.9007 71.6814 117.736 64.9642 117.736 64.9642C117.736 64.9642 114.977 33.6247 123.459 30.9377C131.94 28.2507 147.73 55.4623 147.73 55.4623C147.73 55.4623 173.247 44.4808 181.161 48.2583Z"
          fill="#FEEA80"/>
    <path d="M118.338 43.3418C118.338 43.3418 119.673 33.3034 122.383 32.6519C125.094 32.0003 124.717 39.3639 124.094 40.4268C123.454 41.4951 119.358 43.7712 118.338 43.3418Z"
          fill="white"/>
    <path d="M87.3239 78.5501C87.5124 79.9769 96.7953 74.176 96.4232 72.8827C96.0628 71.5668 86.8877 75.0944 87.3239 78.5501Z"
          fill="white"/>
    <path d="M180.61 102.172C179.474 101.14 181.167 111.178 181.639 110.351C182.099 109.547 184.635 105.79 180.61 102.172Z"
          fill="white"/>
    <path d="M122.111 99.7998C123.537 99.2538 125.138 99.9699 125.701 101.391C126.247 102.817 125.531 104.418 124.11 104.981C122.683 105.527 121.083 104.811 120.52 103.39C119.968 101.946 120.684 100.346 122.111 99.7998Z"
          fill="white" fill-opacity="0.4"/>
    <path d="M143.982 64.0066C145.408 63.4606 147.009 64.1767 147.572 65.5977C148.118 67.0241 147.402 68.6246 145.981 69.1876C144.554 69.7336 142.937 69.023 142.391 67.5965C141.845 66.1701 142.561 64.5697 143.982 64.0066Z"
          fill="white" fill-opacity="0.4"/>
    <path d="M127.594 62.8198C131.605 61.2857 136.096 63.2874 137.625 67.2814C139.159 71.2925 137.157 75.784 133.163 77.3127C129.152 78.8468 124.661 76.8451 123.132 72.8511C121.581 68.8454 123.582 64.354 127.594 62.8198Z"
          fill="white" fill-opacity="0.4"/>
    <path d="M126.529 107.451C127.487 107.091 128.558 107.561 128.918 108.519C129.278 109.478 128.808 110.548 127.85 110.908C126.891 111.269 125.821 110.799 125.461 109.84C125.1 108.882 125.57 107.811 126.529 107.451Z"
          fill="white" fill-opacity="0.4"/>
    <path d="M159.518 97.5454C160.477 97.1854 161.548 97.6552 161.908 98.6137C162.268 99.5722 161.798 100.643 160.84 101.003C159.881 101.363 158.81 100.893 158.45 99.9349C158.09 98.9764 158.56 97.9055 159.518 97.5454Z"
          fill="white" fill-opacity="0.4"/>
    <defs>
        <filter id="filter0_d_16_9314" x="89" y="24" width="701" height="560" filterUnits="userSpaceOnUse"
                color-interpolation-filters="sRGB">
            <feFlood flood-opacity="0" result="BackgroundImageFix"/>
            <feColorMatrix in="SourceAlpha" type="matrix" values="0 0 0 0 0 0 0 0 0 0 0 0 0 0 0 0 0 0 127 0"
                           result="hardAlpha"/>
            <feOffset dy="4"/>
            <feGaussianBlur stdDeviation="10"/>
            <feComposite in2="hardAlpha" operator="out"/>
            <feColorMatrix type="matrix" values="0 0 0 0 0 0 0 0 0 0 0 0 0 0 0 0 0 0 0.25 0"/>
            <feBlend mode="normal" in2="BackgroundImageFix" result="effect1_dropShadow_16_9314"/>
            <feBlend mode="normal" in="SourceGraphic" in2="effect1_dropShadow_16_9314" result="shape"/>
        </filter>
        <filter id="filter1_f_16_9314" x="637.373" y="139.294" width="215.529" height="222.409"
                filterUnits="userSpaceOnUse" color-interpolation-filters="sRGB">
            <feFlood flood-opacity="0" result="BackgroundImageFix"/>
            <feBlend mode="normal" in="SourceGraphic" in2="BackgroundImageFix" result="shape"/>
            <feGaussianBlur stdDeviation="15" result="effect1_foregroundBlur_16_9314"/>
        </filter>
        <filter id="filter2_f_16_9314" x="647.373" y="149.294" width="195.529" height="202.409"
                filterUnits="userSpaceOnUse" color-interpolation-filters="sRGB">
            <feFlood flood-opacity="0" result="BackgroundImageFix"/>
            <feBlend mode="normal" in="SourceGraphic" in2="BackgroundImageFix" result="shape"/>
            <feGaussianBlur stdDeviation="10" result="effect1_foregroundBlur_16_9314"/>
        </filter>
        <filter id="filter3_f_16_9314" x="657.373" y="159.294" width="175.529" height="182.409"
                filterUnits="userSpaceOnUse" color-interpolation-filters="sRGB">
            <feFlood flood-opacity="0" result="BackgroundImageFix"/>
            <feBlend mode="normal" in="SourceGraphic" in2="BackgroundImageFix" result="shape"/>
            <feGaussianBlur stdDeviation="5" result="effect1_foregroundBlur_16_9314"/>
        </filter>
        <filter id="filter4_f_16_9314" x="684.121" y="439.934" width="145.676" height="149.466"
                filterUnits="userSpaceOnUse" color-interpolation-filters="sRGB">
            <feFlood flood-opacity="0" result="BackgroundImageFix"/>
            <feBlend mode="normal" in="SourceGraphic" in2="BackgroundImageFix" result="shape"/>
            <feGaussianBlur stdDeviation="15" result="effect1_foregroundBlur_16_9314"/>
        </filter>
        <filter id="filter5_f_16_9314" x="694.121" y="449.934" width="125.676" height="129.466"
                filterUnits="userSpaceOnUse" color-interpolation-filters="sRGB">
            <feFlood flood-opacity="0" result="BackgroundImageFix"/>
            <feBlend mode="normal" in="SourceGraphic" in2="BackgroundImageFix" result="shape"/>
            <feGaussianBlur stdDeviation="10" result="effect1_foregroundBlur_16_9314"/>
        </filter>
        <filter id="filter6_f_16_9314" x="704.121" y="459.934" width="105.676" height="109.466"
                filterUnits="userSpaceOnUse" color-interpolation-filters="sRGB">
            <feFlood flood-opacity="0" result="BackgroundImageFix"/>
            <feBlend mode="normal" in="SourceGraphic" in2="BackgroundImageFix" result="shape"/>
            <feGaussianBlur stdDeviation="5" result="effect1_foregroundBlur_16_9314"/>
        </filter>
        <filter id="filter7_f_16_9314" x="0.372437" y="375.294" width="215.529" height="222.409"
                filterUnits="userSpaceOnUse" color-interpolation-filters="sRGB">
            <feFlood flood-opacity="0" result="BackgroundImageFix"/>
            <feBlend mode="normal" in="SourceGraphic" in2="BackgroundImageFix" result="shape"/>
            <feGaussianBlur stdDeviation="15" result="effect1_foregroundBlur_16_9314"/>
        </filter>
        <filter id="filter8_f_16_9314" x="10.3726" y="385.294" width="195.529" height="202.409"
                filterUnits="userSpaceOnUse" color-interpolation-filters="sRGB">
            <feFlood flood-opacity="0" result="BackgroundImageFix"/>
            <feBlend mode="normal" in="SourceGraphic" in2="BackgroundImageFix" result="shape"/>
            <feGaussianBlur stdDeviation="10" result="effect1_foregroundBlur_16_9314"/>
        </filter>
        <filter id="filter9_f_16_9314" x="20.3726" y="395.294" width="175.529" height="182.409"
                filterUnits="userSpaceOnUse" color-interpolation-filters="sRGB">
            <feFlood flood-opacity="0" result="BackgroundImageFix"/>
            <feBlend mode="normal" in="SourceGraphic" in2="BackgroundImageFix" result="shape"/>
            <feGaussianBlur stdDeviation="5" result="effect1_foregroundBlur_16_9314"/>
        </filter>
        <filter id="filter10_f_16_9314" x="54.1534" y="0.732056" width="162.883" height="167.434"
                filterUnits="userSpaceOnUse" color-interpolation-filters="sRGB">
            <feFlood flood-opacity="0" result="BackgroundImageFix"/>
            <feBlend mode="normal" in="SourceGraphic" in2="BackgroundImageFix" result="shape"/>
            <feGaussianBlur stdDeviation="15" result="effect1_foregroundBlur_16_9314"/>
        </filter>
        <filter id="filter11_f_16_9314" x="64.1534" y="10.7321" width="142.883" height="147.434"
                filterUnits="userSpaceOnUse" color-interpolation-filters="sRGB">
            <feFlood flood-opacity="0" result="BackgroundImageFix"/>
            <feBlend mode="normal" in="SourceGraphic" in2="BackgroundImageFix" result="shape"/>
            <feGaussianBlur stdDeviation="10" result="effect1_foregroundBlur_16_9314"/>
        </filter>
        <filter id="filter12_f_16_9314" x="74.1534" y="20.7321" width="122.883" height="127.434"
                filterUnits="userSpaceOnUse" color-interpolation-filters="sRGB">
            <feFlood flood-opacity="0" result="BackgroundImageFix"/>
            <feBlend mode="normal" in="SourceGraphic" in2="BackgroundImageFix" result="shape"/>
            <feGaussianBlur stdDeviation="5" result="effect1_foregroundBlur_16_9314"/>
        </filter>
        <radialGradient id="paint0_radial_16_9314" cx="0" cy="0" r="1" gradientUnits="userSpaceOnUse"
                        gradientTransform="translate(439.5 300) rotate(87.3675) scale(1845.9 2389.51)">
            <stop offset="0.122917" stop-color="white"/>
            <stop offset="0.211458" stop-color="#AA92D2"/>
        </radialGradient>
        <linearGradient id="paint1_linear_16_9314" x1="439.5" y1="60" x2="439.5" y2="540"
                        gradientUnits="userSpaceOnUse">
            <stop stop-color="#67DF89"/>
            <stop offset="1" stop-color="#8D67DF" stop-opacity="0"/>
        </linearGradient>
        <linearGradient id="paint2_linear_16_9314" x1="773.637" y1="317.477" x2="775.5" y2="154"
                        gradientUnits="userSpaceOnUse">
            <stop stop-color="#6F41DA"/>
            <stop offset="1" stop-color="#6EF0A2"/>
        </linearGradient>
        <linearGradient id="paint3_linear_16_9314" x1="773.637" y1="317.477" x2="775.5" y2="154"
                        gradientUnits="userSpaceOnUse">
            <stop stop-color="#6F41DA"/>
            <stop offset="1" stop-color="#6EF0A2"/>
        </linearGradient>
        <linearGradient id="paint4_linear_16_9314" x1="773.637" y1="317.477" x2="775.5" y2="154"
                        gradientUnits="userSpaceOnUse">
            <stop stop-color="#6F41DA"/>
            <stop offset="1" stop-color="#6EF0A2"/>
        </linearGradient>
        <radialGradient id="paint5_radial_16_9314" cx="0" cy="0" r="1" gradientUnits="userSpaceOnUse"
                        gradientTransform="translate(749.071 239.932) rotate(-17.578) scale(75.5435 75.5435)">
            <stop stop-color="#FFBD00"/>
            <stop offset="1" stop-color="#FF772C"/>
        </radialGradient>
        <linearGradient id="paint6_linear_16_9314" x1="769.736" y1="305.164" x2="726.786" y2="169.587"
                        gradientUnits="userSpaceOnUse">
            <stop stop-color="#FFF300"/>
            <stop offset="1" stop-color="#FF9700"/>
        </linearGradient>
        <linearGradient id="paint7_linear_16_9314" x1="769.365" y1="303.991" x2="726.444" y2="168.507"
                        gradientUnits="userSpaceOnUse">
            <stop stop-color="#FFDD55"/>
            <stop offset="1" stop-color="#FFEC43"/>
        </linearGradient>
        <linearGradient id="paint8_linear_16_9314" x1="772.659" y1="551.563" x2="773.685" y2="461.509"
                        gradientUnits="userSpaceOnUse">
            <stop stop-color="#6F41DA"/>
            <stop offset="1" stop-color="#6EF07B"/>
        </linearGradient>
        <linearGradient id="paint9_linear_16_9314" x1="772.659" y1="551.563" x2="773.685" y2="461.509"
                        gradientUnits="userSpaceOnUse">
            <stop stop-color="#6F41DA"/>
            <stop offset="1" stop-color="#6EF07B"/>
        </linearGradient>
        <linearGradient id="paint10_linear_16_9314" x1="772.659" y1="551.563" x2="773.685" y2="461.509"
                        gradientUnits="userSpaceOnUse">
            <stop stop-color="#6F41DA"/>
            <stop offset="1" stop-color="#6EF07B"/>
        </linearGradient>
        <radialGradient id="paint11_radial_16_9314" cx="0" cy="0" r="1" gradientUnits="userSpaceOnUse"
                        gradientTransform="translate(759.126 508.846) rotate(-17.578) scale(41.6145 41.6145)">
            <stop stop-color="#FFBD00"/>
            <stop offset="1" stop-color="#FF772C"/>
        </radialGradient>
        <linearGradient id="paint12_linear_16_9314" x1="770.51" y1="544.78" x2="746.85" y2="470.095"
                        gradientUnits="userSpaceOnUse">
            <stop stop-color="#FFF300"/>
            <stop offset="1" stop-color="#FF9700"/>
        </linearGradient>
        <linearGradient id="paint13_linear_16_9314" x1="770.305" y1="544.134" x2="746.662" y2="469.5"
                        gradientUnits="userSpaceOnUse">
            <stop stop-color="#FFDD55"/>
            <stop offset="1" stop-color="#FFEC43"/>
        </linearGradient>
        <linearGradient id="paint14_linear_16_9314" x1="136.637" y1="553.477" x2="138.5" y2="390"
                        gradientUnits="userSpaceOnUse">
            <stop stop-color="#6F41DA"/>
            <stop offset="1" stop-color="#71F06E"/>
        </linearGradient>
        <linearGradient id="paint15_linear_16_9314" x1="136.637" y1="553.477" x2="138.5" y2="390"
                        gradientUnits="userSpaceOnUse">
            <stop stop-color="#6F41DA"/>
            <stop offset="1" stop-color="#71F06E"/>
        </linearGradient>
        <linearGradient id="paint16_linear_16_9314" x1="136.637" y1="553.477" x2="138.5" y2="390"
                        gradientUnits="userSpaceOnUse">
            <stop stop-color="#6F41DA"/>
            <stop offset="1" stop-color="#71F06E"/>
        </linearGradient>
        <radialGradient id="paint17_radial_16_9314" cx="0" cy="0" r="1" gradientUnits="userSpaceOnUse"
                        gradientTransform="translate(112.071 475.932) rotate(-17.578) scale(75.5435 75.5435)">
            <stop stop-color="#FFBD00"/>
            <stop offset="1" stop-color="#FF772C"/>
        </radialGradient>
        <linearGradient id="paint18_linear_16_9314" x1="132.736" y1="541.164" x2="89.7858" y2="405.587"
                        gradientUnits="userSpaceOnUse">
            <stop stop-color="#FFF300"/>
            <stop offset="1" stop-color="#FF9700"/>
        </linearGradient>
        <linearGradient id="paint19_linear_16_9314" x1="132.365" y1="539.991" x2="89.4441" y2="404.507"
                        gradientUnits="userSpaceOnUse">
            <stop stop-color="#FFDD55"/>
            <stop offset="1" stop-color="#FFEC43"/>
        </linearGradient>
        <linearGradient id="paint20_linear_16_9314" x1="154.448" y1="128.756" x2="155.68" y2="20.6151"
                        gradientUnits="userSpaceOnUse">
            <stop stop-color="#6F41DA"/>
            <stop offset="1" stop-color="#6EF093"/>
        </linearGradient>
        <linearGradient id="paint21_linear_16_9314" x1="154.448" y1="128.756" x2="155.68" y2="20.6151"
                        gradientUnits="userSpaceOnUse">
            <stop stop-color="#6F41DA"/>
            <stop offset="1" stop-color="#6EF093"/>
        </linearGradient>
        <linearGradient id="paint22_linear_16_9314" x1="154.448" y1="128.756" x2="155.68" y2="20.6151"
                        gradientUnits="userSpaceOnUse">
            <stop stop-color="#6F41DA"/>
            <stop offset="1" stop-color="#6EF093"/>
        </linearGradient>
        <radialGradient id="paint23_radial_16_9314" cx="0" cy="0" r="1" gradientUnits="userSpaceOnUse"
                        gradientTransform="translate(138.197 77.4595) rotate(-17.578) scale(49.9722 49.9722)">
            <stop stop-color="#FFBD00"/>
            <stop offset="1" stop-color="#FF772C"/>
        </radialGradient>
        <linearGradient id="paint24_linear_16_9314" x1="151.868" y1="120.61" x2="123.456" y2="30.9256"
                        gradientUnits="userSpaceOnUse">
            <stop stop-color="#FFF300"/>
            <stop offset="1" stop-color="#FF9700"/>
        </linearGradient>
        <linearGradient id="paint25_linear_16_9314" x1="151.622" y1="119.834" x2="123.23" y2="30.2118"
                        gradientUnits="userSpaceOnUse">
            <stop stop-color="#FFDD55"/>
            <stop offset="1" stop-color="#FFEC43"/>
        </linearGradient>
    </defs>
</svg>
